<svg width="418" height="418" viewBox="0 0 418 418" fill="none" xmlns="http://www.w3.org/2000/svg">
<g opacity="0.25">
<path d="M164 254C213.706 254 254 213.706 254 164C254 114.294 213.706 74 164 74C114.294 74 74 114.294 74 164C74 213.706 114.294 254 164 254Z" fill="#809CFF"/>
</g>
<g opacity="0.25">
<path d="M254 254C303.706 254 344 213.706 344 164C344 114.294 303.706 74 254 74C204.294 74 164 114.294 164 164C164 213.706 204.294 254 254 254Z" fill="#80FFD1"/>
</g>
<g opacity="0.25">
<path d="M213 344C262.706 344 303 303.706 303 254C303 204.294 262.706 164 213 164C163.294 164 123 204.294 123 254C123 303.706 163.294 344 213 344Z" fill="#FF80BD"/>
</g>
<rect x="74" y="74" width="270" height="270" fill="black" fill-opacity="0.25"/>
</svg>
